<svg width="34" height="30" viewBox="0 0 34 30" fill="none" xmlns="http://www.w3.org/2000/svg">
<g clip-path="url(#clip0_9_33)">
<path d="M33.1656 3.52941C31.9756 4.14706 30.6928 4.55294 29.3637 4.74706C30.7237 3.81176 31.7747 2.32941 32.2692 0.547059C30.9865 1.42941 29.5647 2.04706 28.0656 2.4C26.8447 0.882353 25.1292 0 23.1819 0C19.5501 0 16.5828 3.38824 16.5828 7.57059C16.5828 8.17059 16.6447 8.75294 16.7528 9.3C11.2511 8.98235 6.35199 5.96471 3.09108 1.39412C2.51926 2.50588 2.19472 3.81176 2.19472 5.18824C2.19472 7.81765 3.35381 10.1471 5.14654 11.4706C4.04926 11.4706 3.02926 11.1176 2.1329 10.5882V10.6412C2.1329 14.3118 4.42017 17.3824 7.44926 18.0706C6.47676 18.3745 5.45577 18.4168 4.46654 18.1941C4.8863 19.6985 5.70837 21.0148 6.8172 21.9581C7.92604 22.9015 9.26587 23.4242 10.6484 23.4529C8.30487 25.5713 5.39999 26.7164 2.41108 26.7C1.88563 26.7 1.36017 26.6647 0.834717 26.5941C3.77108 28.7471 7.26381 30 11.0038 30C23.1819 30 29.8737 18.4588 29.8737 8.45294C29.8737 8.11765 29.8737 7.8 29.8583 7.46471C31.1565 6.40588 32.2692 5.06471 33.1656 3.52941Z" fill="white"/>
</g>
<defs>
<clipPath id="clip0_9_33">
<rect width="34" height="30" fill="white"/>
</clipPath>
</defs>
</svg>
