<svg width="50" height="30" viewBox="0 0 50 30" fill="none" xmlns="http://www.w3.org/2000/svg">
<path d="M20 21.4286L32.975 15L20 8.57143V21.4286ZM48.9 4.65C49.225 5.65714 49.45 7.00714 49.6 8.72143C49.775 10.4357 49.85 11.9143 49.85 13.2L50 15C50 19.6929 49.6 23.1429 48.9 25.35C48.275 27.2786 46.825 28.5214 44.575 29.0571C43.4 29.3357 41.25 29.5286 37.95 29.6571C34.7 29.8071 31.725 29.8714 28.975 29.8714L25 30C14.525 30 8 29.6571 5.425 29.0571C3.175 28.5214 1.725 27.2786 1.1 25.35C0.775 24.3429 0.55 22.9929 0.4 21.2786C0.225 19.5643 0.15 18.0857 0.15 16.8L0 15C0 10.3071 0.4 6.85714 1.1 4.65C1.725 2.72143 3.175 1.47857 5.425 0.942857C6.6 0.664286 8.75 0.471429 12.05 0.342857C15.3 0.192857 18.275 0.128571 21.025 0.128571L25 0C35.475 0 42 0.342857 44.575 0.942857C46.825 1.47857 48.275 2.72143 48.9 4.65Z" fill="white"/>
</svg>
